<?xml version="1.0" encoding="UTF-8" standalone="no"?>
<!-- Created with Inkscape (http://www.inkscape.org/) -->
   <!-- width="279.13458"
   height="162.25453" -->

<svg
   version="1.1"
   id="svg18"
   width="300"
   height="180"
   viewBox="0 0 300 180"
   xmlns="http://www.w3.org/2000/svg"
   xmlns:svg="http://www.w3.org/2000/svg">
  <defs
     id="defs22" />
  <g
     id="g26"
     transform="matrix(1.3333333,0,0,-1.3333333,-56.8848,218.08653)">
    <g
       id="g28"
       transform="translate(118.6606,163.5649)">
      <path
         d="m 0,0 h -25.333 l -50.664,-50.664 v -20.508 h 50.664 V -96.504 H 0 v 45.84 h -50.665 z"
         style="fill:#ffffff;fill-opacity:1;fill-rule:nonzero;stroke:none"
         id="path30" />
    </g>
    <g
       id="g32"
       transform="translate(129.5171,138.2329)">
      <path
         d="M 0,0 25.333,25.332 H 0 Z"
         style="fill:#ffffff;fill-opacity:1;fill-rule:nonzero;stroke:none"
         id="path34" />
    </g>
    <g
       id="g36"
       transform="translate(180.1816,138.2329)">
      <path
         d="M 0,0 V 25.332 H -25.332 V 0 l -25.333,-25.332 v -25.334 h 25.333 v 25.334 z"
         style="fill:#ffffff;fill-opacity:1;fill-rule:nonzero;stroke:none"
         id="path38" />
    </g>
    <g
       id="g40"
       transform="translate(180.1816,112.9009)">
      <path
         d="M 0,0 -25.332,-25.333 H 0 Z"
         style="fill:#ffffff;fill-opacity:1;fill-rule:nonzero;stroke:none"
         id="path42" />
    </g>
    <path
       d="m 131.517,41.874 h -2 v 25.187 h 2 z"
       style="fill:#ffffff;fill-opacity:1;fill-rule:nonzero;stroke:none"
       id="path44" />
    <text
       xml:space="preserve"
       transform="matrix(1,0,0,-1,139.1768,48.7666)"
       style="font-style:normal;font-variant:normal;font-weight:900;font-stretch:normal;font-size:20px;font-family:futura;-inkscape-font-specification:FuturaPT-HeavyObl;writing-mode:lr-tb;fill:#ffffff;fill-opacity:1;fill-rule:nonzero;stroke:none"
       id="text48"><tspan
         x="0 14.4 24.440001 30.559999 39.52 51.400002 63.540001 79.739998 95.660004"
         y="0"
         id="tspan46">HEILBRONN</tspan></text>
  </g> 
</svg>
